# Blender 3.6.2
# www.blender.org
mtllib torch2obj.mtl
o Cube
v 0.215480 1.465440 0.215480
v -0.215480 1.465440 0.215480
v 0.215480 1.465440 -0.215480
v -0.215480 1.465440 -0.215480
v 0.357012 1.982777 0.357012
v -0.357012 1.982777 0.357012
v 0.357012 1.982777 -0.357012
v -0.357012 1.982777 -0.357012
v 0.357012 2.830179 0.357012
v -0.357012 2.830179 0.357012
v 0.357012 2.830179 -0.357012
v -0.357012 2.830179 -0.357012
v 0.266130 3.056562 0.266130
v -0.266130 3.056562 0.266130
v 0.266130 3.056562 -0.266130
v -0.266130 3.056562 -0.266130
v 0.000000 1.414443 0.289235
v 0.289235 1.414443 0.000000
v -0.289235 1.414443 0.000000
v 0.000000 1.414443 -0.289235
v 0.173214 0.423235 -0.173214
v 0.173214 0.423235 0.173214
v -0.173214 0.423235 -0.173214
v -0.173214 0.423235 0.173214
v 0.000000 1.934442 0.488259
v 0.488259 1.934442 0.000000
v -0.488259 1.934442 0.000000
v 0.000000 1.934442 -0.488259
v -0.288312 1.824851 -0.288312
v 0.288312 1.824851 -0.288312
v 0.288312 1.824851 0.288312
v -0.288312 1.824851 0.288312
v 0.000000 2.874986 0.490615
v 0.490615 2.874986 0.000000
v -0.490615 2.874986 0.000000
v 0.000000 2.874986 -0.490615
v -0.393349 2.406478 0.393349
v -0.393349 2.406478 -0.393349
v 0.393349 2.406478 0.393349
v 0.393349 2.406478 -0.393349
v 0.000000 3.111087 0.298564
v 0.298564 3.111087 0.000000
v -0.298564 3.111087 0.000000
v 0.000000 3.111087 -0.298564
v -0.324333 2.953618 -0.324333
v 0.324333 2.953618 -0.324333
v 0.324333 2.953618 0.324333
v -0.324333 2.953618 0.324333
v 0.000000 3.010105 0.415572
v -0.415572 3.010105 0.000000
v 0.415572 3.010105 0.000000
v 0.000000 3.192354 0.000000
v 0.568932 2.404515 0.000000
v 0.000000 2.404515 -0.568932
v 0.000000 2.404515 0.568932
v 0.000000 3.010105 -0.415572
v 0.000000 1.782349 0.392367
v -0.392367 1.782349 0.000000
v 0.392367 1.782349 0.000000
v -0.568932 2.404515 0.000000
v -0.216082 0.396551 0.000000
v 0.000000 0.396551 0.216082
v 0.000000 0.396551 -0.216082
v 0.000000 1.782349 -0.392367
v 0.216082 0.396551 0.000000
v -0.295241 -1.276931 0.000000
v -0.215480 -1.236273 0.215480
v 0.000000 -1.276931 -0.295241
v -0.215480 -1.236273 -0.215480
v 0.224824 -0.927621 -0.224824
v 0.215480 -1.236273 -0.215480
v -0.224824 -0.927621 0.224824
v -0.215480 -0.618969 0.215480
v 0.224824 -0.927621 0.224824
v 0.215480 -1.236273 0.215480
v -0.224824 -0.927621 -0.224824
v 0.000000 -0.618969 0.303842
v 0.303842 -0.618969 0.000000
v 0.215480 -0.618969 0.215480
v 0.000000 -1.276931 0.295241
v -0.303842 -0.618969 0.000000
v -0.215480 -0.618969 -0.215480
v 0.000000 -0.618969 -0.303842
v 0.215480 -0.618969 -0.215480
v 0.295241 -1.276931 0.000000
v 0.173214 0.423235 0.173214
v -0.173214 0.423235 0.173214
v -0.163487 -1.506435 0.000000
v -0.146545 -1.464085 0.146545
v 0.000000 -1.506435 -0.163487
v -0.146545 -1.464085 -0.146545
v 0.000000 -1.506435 0.163487
v 0.146545 -1.464085 0.146545
v 0.163487 -1.506435 0.000000
v 0.146545 -1.464085 -0.146545
v 0.190043 -1.361392 -0.190043
v -0.190043 -1.361392 -0.190043
v -0.190043 -1.361392 0.190043
v 0.190043 -1.361392 0.190043
v 0.173214 0.423235 -0.173214
v -0.173214 0.423235 -0.173214
v 0.243562 -1.408406 0.000000
v -0.243562 -1.408406 0.000000
v 0.000000 -1.408406 0.243562
v 0.000000 -1.568151 0.000000
v -0.216082 0.396551 0.000000
v 0.000000 0.396551 0.216082
v 0.000000 0.396551 -0.216082
v 0.000000 -0.950168 -0.314665
v 0.314665 -0.950168 0.000000
v 0.000000 -1.408406 -0.243562
v -0.314665 -0.950168 0.000000
v 0.000000 -0.950168 0.314665
v 0.216082 0.396551 0.000000
v 0.345632 0.187632 0.592851
v 0.345632 -0.243327 0.592851
v 0.345632 0.187632 0.161892
v 0.345632 -0.243327 0.161892
v 0.636776 0.187632 0.592851
v 0.636776 -0.243327 0.592851
v 0.636776 0.187632 0.161892
v 0.636776 -0.243327 0.161892
v 0.636776 0.187632 -0.831651
v 0.636776 -0.243327 -0.831651
v 0.345632 0.187632 -0.831651
v 0.345632 -0.243327 -0.831651
v 0.636776 -0.243327 -0.367019
v 0.636776 0.187632 -0.367019
v 0.345632 0.187632 -0.367019
v 0.345632 -0.243327 -0.367019
v -0.309561 -0.243327 -0.831651
v -0.309561 0.187632 -0.831651
v -0.309561 -0.243327 -0.367019
v -0.309561 0.187632 -0.367019
v -0.627968 -0.243327 -0.831651
v -0.627968 0.187632 -0.831651
v -0.627968 -0.243327 -0.367019
v -0.627968 0.187632 -0.367019
v -0.309561 -0.243327 0.204380
v -0.309561 0.187632 0.204380
v -0.627968 -0.243327 0.204380
v -0.627968 0.187632 0.204380
v -0.309561 -0.243327 0.562321
v -0.309561 0.187632 0.562321
v -0.627968 -0.243327 0.562321
v -0.627968 0.187632 0.562321
v 0.345632 0.566426 -0.367019
v 0.345632 0.908413 -0.831651
v -0.309561 0.566426 -0.367019
v -0.309561 0.908413 -0.831651
v 0.345632 -0.498171 -0.367019
v 0.345632 -0.664638 -0.831651
v -0.309561 -0.498171 -0.367019
v -0.309561 -0.664638 -0.831651
vn 0.9528 -0.0595 -0.2978
vn -0.3580 -0.4985 -0.7895
vn -0.2978 -0.0595 -0.9528
vn 0.2978 -0.0595 0.9528
vn -0.9528 -0.0595 0.2978
vn -0.9137 0.1328 0.3841
vn 0.7895 -0.4985 -0.3580
vn -0.7895 -0.4985 0.3580
vn 0.3580 -0.4985 0.7895
vn -0.2707 0.6706 -0.6906
vn 0.3841 0.1328 0.9137
vn -0.3841 0.1328 -0.9137
vn 0.9137 0.1328 -0.3841
vn -0.2400 0.9406 0.2400
vn 0.6906 0.6706 -0.2707
vn -0.6906 0.6706 0.2707
vn 0.2707 0.6706 0.6906
vn -0.2707 0.6706 0.6906
vn -0.3403 0.3980 0.8520
vn 0.3403 0.3980 0.8520
vn -0.6906 0.6706 -0.2707
vn -0.8520 0.3980 -0.3403
vn -0.8520 0.3980 0.3403
vn 0.6906 0.6706 0.2707
vn 0.8520 0.3980 0.3403
vn 0.8520 0.3980 -0.3403
vn 0.2400 0.9406 0.2400
vn 0.2400 0.9406 -0.2400
vn -0.2400 0.9406 -0.2400
vn 0.9137 0.1328 0.3841
vn 0.9139 -0.1352 0.3828
vn 0.9139 -0.1352 -0.3828
vn 0.3841 0.1328 -0.9137
vn 0.3828 -0.1352 -0.9139
vn -0.3828 -0.1352 -0.9139
vn -0.3841 0.1328 0.9137
vn -0.3828 -0.1352 0.9139
vn 0.3828 -0.1352 0.9139
vn 0.2707 0.6706 -0.6906
vn 0.3403 0.3980 -0.8520
vn -0.3403 0.3980 -0.8520
vn -0.3580 -0.4985 0.7895
vn -0.3634 -0.2533 0.8965
vn 0.3634 -0.2533 0.8965
vn -0.7895 -0.4985 -0.3580
vn -0.8965 -0.2533 -0.3634
vn -0.8965 -0.2533 0.3634
vn 0.7895 -0.4985 0.3580
vn 0.8965 -0.2533 0.3634
vn 0.8965 -0.2533 -0.3634
vn -0.9137 0.1328 -0.3841
vn -0.9139 -0.1352 -0.3828
vn -0.9139 -0.1352 0.3828
vn -0.9528 -0.0595 -0.2978
vn -0.2978 -0.0595 0.9528
vn 0.2978 -0.0595 -0.9528
vn 0.3580 -0.4985 -0.7895
vn 0.3634 -0.2533 -0.8965
vn -0.3634 -0.2533 -0.8965
vn -0.0000 1.0000 -0.0000
vn 0.9528 -0.0595 0.2978
vn -0.3734 0.0347 0.9270
vn -0.9270 0.0347 -0.3734
vn 0.3081 -0.5463 -0.7789
vn 0.9270 0.0347 0.3734
vn 0.3734 0.0347 -0.9270
vn 0.3173 -0.8937 0.3173
vn -0.3081 -0.5463 0.7789
vn -0.7789 -0.5463 -0.3081
vn 0.7789 -0.5463 0.3081
vn 0.7789 -0.5463 -0.3081
vn 0.8847 -0.3012 -0.3559
vn 0.8847 -0.3012 0.3559
vn -0.7789 -0.5463 0.3081
vn -0.8847 -0.3012 0.3559
vn -0.8847 -0.3012 -0.3559
vn 0.3081 -0.5463 0.7789
vn 0.3559 -0.3012 0.8847
vn -0.3559 -0.3012 0.8847
vn -0.3173 -0.8937 0.3173
vn -0.3173 -0.8937 -0.3173
vn 0.3173 -0.8937 -0.3173
vn -0.9467 0.0663 -0.3151
vn -0.9467 0.0663 0.3151
vn -0.3151 0.0663 0.9467
vn 0.3151 0.0663 0.9467
vn 0.3151 0.0663 -0.9467
vn -0.3151 0.0663 -0.9467
vn 0.3650 -0.0475 -0.9298
vn -0.3650 -0.0475 -0.9298
vn -0.3734 0.0347 -0.9270
vn 0.9298 -0.0475 0.3650
vn 0.9298 -0.0475 -0.3650
vn 0.9270 0.0347 -0.3734
vn -0.3081 -0.5463 -0.7789
vn -0.3559 -0.3012 -0.8847
vn 0.3559 -0.3012 -0.8847
vn -0.9298 -0.0475 -0.3650
vn -0.9298 -0.0475 0.3650
vn -0.9270 0.0347 0.3734
vn -0.3650 -0.0475 0.9298
vn 0.3650 -0.0475 0.9298
vn 0.3734 0.0347 0.9270
vn 0.9467 0.0663 0.3151
vn 0.9467 0.0663 -0.3151
vn -1.0000 -0.0000 -0.0000
vn 1.0000 -0.0000 -0.0000
vn -0.0000 -0.0000 1.0000
vn -0.0000 -1.0000 -0.0000
vn -0.0000 -0.0000 -1.0000
vn -0.0000 0.8054 0.5928
vn -0.0000 -0.9414 0.3373
vt 0.625000 0.625000
vt 0.625000 0.500000
vt 0.625000 0.375000
vt 0.625000 0.250000
vt 0.625000 0.875000
vt 0.625000 0.750000
vt 0.625000 0.125000
vt 0.625000 0.000000
vt 0.750000 0.625000
vt 0.875000 0.625000
vt 0.875000 0.750000
vt 0.750000 0.750000
vt 0.625000 1.000000
vt 0.750000 0.500000
vt 0.875000 0.500000
vt 0.500000 0.875000
vt 0.500000 1.000000
vt 0.500000 0.125000
vt 0.500000 0.250000
vt 0.375000 0.375000
vt 0.375000 0.500000
vt 0.500000 0.625000
vt 0.500000 0.750000
vt 0.500000 0.375000
vt 0.500000 0.500000
vt 0.250000 0.625000
vt 0.375000 0.625000
vt 0.375000 0.750000
vt 0.250000 0.750000
vt 0.375000 0.875000
vt 0.375000 1.000000
vt 0.375000 0.125000
vt 0.375000 0.250000
vt 0.375000 0.000000
vt 0.125000 0.625000
vt 0.125000 0.750000
vt 0.125000 0.500000
vt 0.250000 0.500000
vt 0.500000 0.000000
s 0
usemtl torch_material
f 65/1/1 21/2/1 3/2/1 18/1/1
f 64/3/2 29/4/2 8/4/2 28/3/2
f 63/3/3 23/4/3 4/4/3 20/3/3
f 62/5/4 22/6/4 1/6/4 17/5/4
f 61/7/5 24/8/5 2/8/5 19/7/5
f 60/7/6 37/8/6 10/8/6 35/7/6
f 59/1/7 30/2/7 7/2/7 26/1/7
f 58/7/8 32/8/8 6/8/8 27/7/8
f 57/5/9 31/6/9 5/6/9 25/5/9
f 56/3/10 45/4/10 16/4/10 44/3/10
f 55/5/11 39/6/11 9/6/11 33/5/11
f 54/3/12 38/4/12 12/4/12 36/3/12
f 53/1/13 40/2/13 11/2/13 34/1/13
f 52/9/14 43/10/14 14/11/14 41/12/14
f 51/1/15 46/2/15 15/2/15 42/1/15
f 50/7/16 48/8/16 14/8/16 43/7/16
f 49/5/17 47/6/17 13/6/17 41/5/17
f 48/13/18 49/5/18 41/5/18 14/13/18
f 10/13/19 33/5/19 49/5/19 48/13/19
f 33/5/20 9/6/20 47/6/20 49/5/20
f 45/4/21 50/7/21 43/7/21 16/4/21
f 12/4/22 35/7/22 50/7/22 45/4/22
f 35/7/23 10/8/23 48/8/23 50/7/23
f 47/6/24 51/1/24 42/1/24 13/6/24
f 9/6/25 34/1/25 51/1/25 47/6/25
f 34/1/26 11/2/26 46/2/26 51/1/26
f 42/1/27 52/9/27 41/12/27 13/6/27
f 15/2/28 44/14/28 52/9/28 42/1/28
f 44/14/29 16/15/29 43/10/29 52/9/29
f 39/6/30 53/1/30 34/1/30 9/6/30
f 5/6/31 26/1/31 53/1/31 39/6/31
f 26/1/32 7/2/32 40/2/32 53/1/32
f 40/2/33 54/3/33 36/3/33 11/2/33
f 7/2/34 28/3/34 54/3/34 40/2/34
f 28/3/35 8/4/35 38/4/35 54/3/35
f 37/13/36 55/5/36 33/5/36 10/13/36
f 6/13/37 25/5/37 55/5/37 37/13/37
f 25/5/38 5/6/38 39/6/38 55/5/38
f 46/2/39 56/3/39 44/3/39 15/2/39
f 11/2/40 36/3/40 56/3/40 46/2/40
f 36/3/41 12/4/41 45/4/41 56/3/41
f 32/13/42 57/5/42 25/5/42 6/13/42
f 2/13/43 17/5/43 57/5/43 32/13/43
f 17/5/44 1/6/44 31/6/44 57/5/44
f 29/4/45 58/7/45 27/7/45 8/4/45
f 4/4/46 19/7/46 58/7/46 29/4/46
f 19/7/47 2/8/47 32/8/47 58/7/47
f 31/6/48 59/1/48 26/1/48 5/6/48
f 1/6/49 18/1/49 59/1/49 31/6/49
f 18/1/50 3/2/50 30/2/50 59/1/50
f 38/4/51 60/7/51 35/7/51 12/4/51
f 8/4/52 27/7/52 60/7/52 38/4/52
f 27/7/53 6/8/53 37/8/53 60/7/53
f 23/4/54 61/7/54 19/7/54 4/4/54
f 24/13/55 62/5/55 17/5/55 2/13/55
f 21/2/56 63/3/56 20/3/56 3/2/56
f 30/2/57 64/3/57 28/3/57 7/2/57
f 3/2/58 20/3/58 64/3/58 30/2/58
f 20/3/59 4/4/59 29/4/59 64/3/59
f 23/4/60 63/3/60 108/3/60 101/4/60
f 61/7/60 23/4/60 101/4/60 106/7/60
f 62/5/60 24/13/60 87/13/60 107/5/60
f 21/2/60 65/1/60 114/1/60 100/2/60
f 63/3/60 21/2/60 100/2/60 108/3/60
f 24/8/60 61/7/60 106/7/60 87/8/60
f 22/6/61 65/1/61 18/1/61 1/6/61
f 65/1/60 22/6/60 86/6/60 114/1/60
f 22/6/60 62/5/60 107/5/60 86/6/60
f 113/16/62 77/5/62 73/13/62 72/17/62
f 112/18/63 81/7/63 82/4/63 76/19/63
f 111/20/64 96/21/64 95/21/64 90/20/64
f 110/22/65 78/1/65 79/6/65 74/23/65
f 109/24/66 83/3/66 84/2/66 70/25/66
f 105/26/67 94/27/67 93/28/67 92/29/67
f 104/30/68 98/31/68 89/31/68 92/30/68
f 103/32/69 97/33/69 91/33/69 88/32/69
f 102/27/70 99/28/70 93/28/70 94/27/70
f 96/21/71 102/27/71 94/27/71 95/21/71
f 71/21/72 85/27/72 102/27/72 96/21/72
f 85/27/73 75/28/73 99/28/73 102/27/73
f 98/34/74 103/32/74 88/32/74 89/34/74
f 67/34/75 66/32/75 103/32/75 98/34/75
f 66/32/76 69/33/76 97/33/76 103/32/76
f 99/28/77 104/30/77 92/30/77 93/28/77
f 75/28/78 80/30/78 104/30/78 99/28/78
f 80/30/79 67/31/79 98/31/79 104/30/79
f 88/35/80 105/26/80 92/29/80 89/36/80
f 91/37/81 90/38/81 105/26/81 88/35/81
f 90/38/82 95/21/82 94/27/82 105/26/82
f 82/4/83 81/7/83 106/7/83 101/4/83
f 81/7/84 73/8/84 87/8/84 106/7/84
f 73/13/85 77/5/85 107/5/85 87/13/85
f 77/5/86 79/6/86 86/6/86 107/5/86
f 84/2/87 83/3/87 108/3/87 100/2/87
f 83/3/88 82/4/88 101/4/88 108/3/88
f 68/20/89 109/24/89 70/25/89 71/21/89
f 69/33/90 76/19/90 109/24/90 68/20/90
f 76/19/91 82/4/91 83/3/91 109/24/91
f 85/27/92 110/22/92 74/23/92 75/28/92
f 71/21/93 70/25/93 110/22/93 85/27/93
f 70/25/94 84/2/94 78/1/94 110/22/94
f 97/33/95 111/20/95 90/20/95 91/33/95
f 69/33/96 68/20/96 111/20/96 97/33/96
f 68/20/97 71/21/97 96/21/97 111/20/97
f 66/32/98 112/18/98 76/19/98 69/33/98
f 67/34/99 72/39/99 112/18/99 66/32/99
f 72/39/100 73/8/100 81/7/100 112/18/100
f 80/30/101 113/16/101 72/17/101 67/31/101
f 75/28/102 74/23/102 113/16/102 80/30/102
f 74/23/103 79/6/103 77/5/103 113/16/103
f 79/6/104 78/1/104 114/1/104 86/6/104
f 78/1/105 84/2/105 100/2/105 114/1/105
f 115/34/106 117/33/106 118/4/106 116/8/106
f 122/2/107 127/2/107 128/21/107 121/21/107
f 121/21/107 119/28/107 120/6/107 122/2/107
f 119/28/108 115/31/108 116/13/108 120/6/108
f 117/37/60 115/36/60 119/28/60 121/21/60
f 122/2/109 120/6/109 116/11/109 118/15/109
f 128/21/60 123/21/60 125/37/60 129/37/60
f 117/33/106 129/33/106 130/4/106 118/4/106
f 118/15/109 130/15/109 127/2/109 122/2/109
f 121/21/60 128/21/60 129/37/60 117/37/60
f 125/33/110 123/21/110 124/2/110 126/4/110
f 129/33/108 134/33/108 133/4/108 130/4/108
f 130/15/109 126/15/109 124/2/109 127/2/109
f 127/2/107 124/2/107 123/21/107 128/21/107
f 132/37/60 136/37/60 138/37/60 134/37/60
f 126/4/110 152/4/110 154/4/110 131/4/110
f 134/37/106 149/37/106 150/37/106 132/37/106
f 126/4/110 131/4/110 132/33/110 125/33/110
f 138/33/106 136/33/106 135/4/106 137/4/106
f 131/4/110 135/4/110 136/33/110 132/33/110
f 133/15/109 137/15/109 135/15/109 131/15/109
f 133/15/109 139/15/109 141/15/109 137/15/109
f 141/4/106 145/4/106 146/33/106 142/33/106
f 137/4/106 141/4/106 142/33/106 138/33/106
f 134/33/107 140/33/107 139/4/107 133/4/107
f 138/37/60 142/37/60 140/37/60 134/37/60
f 144/33/108 146/33/108 145/4/108 143/4/108
f 142/37/60 146/37/60 144/37/60 140/37/60
f 140/33/107 144/33/107 143/4/107 139/4/107
f 139/15/109 143/15/109 145/15/109 141/15/109
f 148/37/111 150/37/111 149/37/111 147/37/111
f 125/37/107 148/37/107 147/37/107 129/37/107
f 132/33/110 150/33/110 148/33/110 125/33/110
f 129/33/108 147/33/108 149/33/108 134/33/108
f 151/15/112 153/15/112 154/15/112 152/15/112
f 133/4/108 153/4/108 151/4/108 130/4/108
f 130/15/107 151/15/107 152/15/107 126/15/107
f 131/15/106 154/15/106 153/15/106 133/15/106
